<svg xmlns="http://www.w3.org/2000/svg" xmlns:xlink="http://www.w3.org/1999/xlink" width="36" zoomAndPan="magnify" viewBox="0 0 26.88 22.5" height="30" preserveAspectRatio="xMidYMid meet" version="1.2"><defs><clipPath id="af2e8975fd"><path d="M 2.269531 0 L 24.28125 0 L 24.28125 22.011719 L 2.269531 22.011719 Z M 2.269531 0 "/></clipPath></defs><g id="01e3a050c0"><g clip-rule="nonzero" clip-path="url(#af2e8975fd)"><path style=" stroke:none;fill-rule:nonzero;fill:#f5fffa;fill-opacity:1;" d="M 13.273438 1.984375 C 16.207031 1.984375 16.554688 1.996094 17.71875 2.046875 C 18.789062 2.09375 19.371094 2.273438 19.761719 2.429688 C 20.273438 2.625 20.640625 2.867188 21.027344 3.253906 C 21.414062 3.640625 21.648438 4.003906 21.851562 4.515625 C 22 4.902344 22.179688 5.484375 22.234375 6.5625 C 22.285156 7.722656 22.296875 8.070312 22.296875 11.007812 C 22.296875 13.945312 22.285156 14.292969 22.234375 15.453125 C 22.183594 16.523438 22.003906 17.109375 21.851562 17.5 C 21.652344 18.011719 21.414062 18.378906 21.027344 18.761719 C 20.640625 19.148438 20.273438 19.386719 19.761719 19.585938 C 19.378906 19.738281 18.792969 19.914062 17.71875 19.96875 C 16.554688 20.023438 16.207031 20.03125 13.273438 20.03125 C 10.335938 20.03125 9.988281 20.023438 8.824219 19.96875 C 7.753906 19.921875 7.171875 19.742188 6.78125 19.585938 C 6.269531 19.390625 5.902344 19.148438 5.515625 18.761719 C 5.132812 18.378906 4.894531 18.011719 4.691406 17.5 C 4.542969 17.113281 4.363281 16.53125 4.3125 15.453125 C 4.257812 14.292969 4.25 13.945312 4.25 11.007812 C 4.25 8.070312 4.257812 7.722656 4.3125 6.5625 C 4.359375 5.492188 4.539062 4.90625 4.691406 4.515625 C 4.890625 4.003906 5.132812 3.640625 5.515625 3.253906 C 5.902344 2.867188 6.269531 2.628906 6.78125 2.429688 C 7.167969 2.277344 7.75 2.101562 8.824219 2.046875 C 9.988281 1.996094 10.335938 1.984375 13.273438 1.984375 M 13.273438 0.00390625 C 10.28125 0.00390625 9.910156 0.015625 8.734375 0.0703125 C 7.5625 0.121094 6.761719 0.3125 6.0625 0.582031 C 5.339844 0.859375 4.726562 1.238281 4.113281 1.847656 C 3.507812 2.460938 3.128906 3.074219 2.851562 3.796875 C 2.578125 4.496094 2.390625 5.296875 2.339844 6.46875 C 2.285156 7.640625 2.269531 8.019531 2.269531 11.003906 C 2.269531 13.992188 2.285156 14.363281 2.339844 15.542969 C 2.390625 16.714844 2.578125 17.515625 2.851562 18.214844 C 3.128906 18.9375 3.507812 19.550781 4.117188 20.160156 C 4.730469 20.773438 5.34375 21.148438 6.066406 21.429688 C 6.765625 21.699219 7.566406 21.886719 8.738281 21.941406 C 9.910156 21.992188 10.285156 22.007812 13.277344 22.007812 C 16.265625 22.007812 16.636719 21.992188 17.816406 21.941406 C 18.988281 21.886719 19.789062 21.699219 20.488281 21.429688 C 21.210938 21.148438 21.824219 20.773438 22.433594 20.160156 C 23.046875 19.550781 23.421875 18.9375 23.703125 18.214844 C 23.972656 17.515625 24.160156 16.714844 24.214844 15.542969 C 24.269531 14.371094 24.28125 13.992188 24.28125 11.003906 C 24.28125 8.011719 24.269531 7.640625 24.214844 6.464844 C 24.160156 5.292969 23.972656 4.492188 23.703125 3.792969 C 23.421875 3.070312 23.046875 2.457031 22.433594 1.84375 C 21.824219 1.230469 21.210938 0.855469 20.488281 0.578125 C 19.789062 0.304688 18.988281 0.117188 17.816406 0.0664062 C 16.636719 0.015625 16.261719 0.00390625 13.273438 0.00390625 "/></g><path style=" stroke:none;fill-rule:nonzero;fill:#f5fffa;fill-opacity:1;" d="M 13.273438 5.355469 C 10.152344 5.355469 7.625 7.882812 7.625 11.003906 C 7.625 14.125 10.15625 16.65625 13.277344 16.65625 C 16.398438 16.65625 18.929688 14.128906 18.929688 11.003906 C 18.925781 7.882812 16.390625 5.355469 13.273438 5.355469 M 13.273438 14.671875 C 11.246094 14.671875 9.605469 13.035156 9.605469 11.007812 C 9.605469 8.980469 11.246094 7.34375 13.273438 7.34375 C 15.296875 7.34375 16.9375 8.980469 16.9375 11.007812 C 16.941406 13.027344 15.296875 14.671875 13.273438 14.671875 "/><path style=" stroke:none;fill-rule:nonzero;fill:#f5fffa;fill-opacity:1;" d="M 20.46875 5.132812 C 20.46875 5.863281 19.875 6.457031 19.144531 6.457031 C 18.417969 6.457031 17.824219 5.863281 17.824219 5.132812 C 17.824219 4.40625 18.417969 3.8125 19.144531 3.8125 C 19.875 3.8125 20.46875 4.402344 20.46875 5.132812 "/></g></svg>